<!DOCTYPE svg PUBLIC "-//W3C//DTD SVG 1.1//EN" "http://www.w3.org/Graphics/SVG/1.1/DTD/svg11.dtd">

<!-- Uploaded to: SVG Repo, www.svgrepo.com, Transformed by: SVG Repo Mixer Tools -->
<svg fill="#2660a4" xmlns="http://www.w3.org/2000/svg" width="40px" height="40px" viewBox="-5.2 -5.2 62.40 62.40" enable-background="new 0 0 52 52" xml:space="preserve" transform="rotate(0)" stroke="#2660a4">

<g id="SVGRepo_bgCarrier" stroke-width="0"/>

<g id="SVGRepo_tracerCarrier" stroke-linecap="round" stroke-linejoin="round"/>

<g id="SVGRepo_iconCarrier"> <path d="M8,20c3.3,0,6,2.7,6,6s-2.7,6-6,6s-6-2.7-6-6S4.7,20,8,20z M26,20c3.3,0,6,2.7,6,6s-2.7,6-6,6s-6-2.7-6-6 S22.7,20,26,20z M44,20c3.3,0,6,2.7,6,6s-2.7,6-6,6s-6-2.7-6-6S40.7,20,44,20z"/> </g>

</svg>